<svg width="29" height="29" viewBox="0 0 29 29" fill="none" xmlns="http://www.w3.org/2000/svg">
<circle cx="14.0848" cy="14.0848" r="14.0848" fill="#111914"/>
<g clip-path="url(#clip0_722_28)">
<path d="M17.4648 18.3527C18.5695 17.9963 19.5311 17.4997 20.2408 16.5824C20.092 16.67 19.9432 16.7577 19.7944 16.8453C17.9914 17.9087 16.0625 18.4637 13.9676 18.3644C12.5309 18.2943 11.1457 17.9554 9.79492 17.4646C9.17103 17.2368 8.57003 16.9505 7.95759 16.6934C7.92897 16.6817 7.89463 16.67 7.85456 16.6759C8.54714 17.5698 9.48584 18.0723 10.5333 18.4228C10.2013 18.8435 9.8865 19.2583 9.56025 19.6614C9.5259 19.7082 9.43432 19.7257 9.37136 19.7257C8.09496 19.7023 6.91586 19.3518 5.8684 18.6039C4.97549 17.9671 4.60917 17.0498 4.7122 15.9456C4.88391 14.0993 5.27885 12.3056 5.95426 10.5821C6.84717 8.30346 8.51279 6.97719 10.8939 6.6091C11.0542 6.58573 11.2201 6.56821 11.3861 6.57989C11.4834 6.58573 11.575 6.65584 11.6609 6.72011C10.4761 7.0473 9.34847 7.47381 8.31819 8.13986C8.07779 8.29761 7.84883 8.47289 7.62561 8.65985C11.8612 6.74933 16.0739 6.76685 20.3038 8.75333C19.8344 8.23334 18.3978 7.51471 16.4975 6.84281C16.5833 6.66169 16.715 6.57989 16.921 6.60326C19.4567 6.84281 21.2368 8.15739 22.2098 10.5587C22.8852 12.2297 23.2859 13.9825 23.4576 15.782C23.5721 16.9505 23.1371 17.8853 22.1812 18.5338C21.128 19.2466 19.9546 19.5972 18.6897 19.6381C18.558 19.6439 18.4665 19.6089 18.3806 19.4979C18.0887 19.1181 17.7853 18.75 17.4648 18.3527ZM18.6267 14.0759C18.621 13.1294 17.8597 12.3232 16.9783 12.329C16.0968 12.3348 15.3355 13.1411 15.3355 14.0642C15.3355 15.0049 16.0968 15.817 16.9783 15.8229C17.8712 15.8287 18.6324 15.0224 18.6267 14.0759ZM9.4515 14.0584C9.4515 15.0049 10.1956 15.8112 11.0828 15.8229C11.9585 15.8346 12.7427 15.0107 12.7427 14.0818C12.7427 13.147 11.9757 12.329 11.0942 12.329C10.2128 12.329 9.45722 13.1294 9.4515 14.0584Z" fill="#61FA0A"/>
</g>
<defs>
<clipPath id="clip0_722_28">
<rect width="18.7798" height="13.1458" fill="white" transform="translate(4.69531 6.57227)"/>
</clipPath>
</defs>
</svg>
