<svg width="69" height="69" viewBox="0 0 69 69" fill="none" xmlns="http://www.w3.org/2000/svg">
<circle cx="34.5" cy="34.5" r="31.5" fill="white" fill-opacity="0.06" stroke="#545956" stroke-width="6"/>
<path d="M18.456 29.304V36.152H20.6C20.84 35.432 21.432 34.92 22.36 34.92C23.624 34.92 24.28 35.64 24.28 36.952C24.28 38.184 23.688 39.112 22.376 39.112C21.288 39.112 20.632 38.52 20.44 37.704H18.264C18.456 39.608 19.896 41 22.408 41C25.064 41 26.44 39.304 26.44 36.92C26.44 35.112 25.512 33.064 22.792 33.064C21.816 33.064 20.936 33.48 20.504 34.008V31.272H25.688V29.304H18.456ZM28.1449 35.016C28.1449 38.424 29.1689 40.968 32.4649 40.968C35.7609 40.968 36.7849 38.424 36.7849 35.016C36.7849 31.64 35.7609 29.112 32.4649 29.112C29.1689 29.112 28.1449 31.64 28.1449 35.016ZM34.5769 35.016C34.5769 37.096 34.3529 38.888 32.4649 38.888C30.5769 38.888 30.3529 37.096 30.3529 35.016C30.3529 33.016 30.5769 31.192 32.4649 31.192C34.3529 31.192 34.5769 33.016 34.5769 35.016ZM38.2326 32.2C38.2326 33.88 39.3206 34.808 40.7766 34.808C42.2326 34.808 43.3206 33.88 43.3206 32.2C43.3206 30.536 42.2326 29.608 40.7766 29.608C39.3206 29.608 38.2326 30.536 38.2326 32.2ZM40.7606 30.952C41.3206 30.952 41.6726 31.32 41.6726 32.2C41.6726 33.08 41.3206 33.464 40.7606 33.464C40.2166 33.464 39.8806 33.08 39.8806 32.2C39.8806 31.32 40.2166 30.952 40.7606 30.952ZM40.0406 41H42.2166L48.5046 29.8H46.3126L40.0406 41ZM45.2566 38.584C45.2566 40.28 46.3446 41.192 47.8006 41.192C49.2406 41.192 50.3126 40.28 50.3126 38.584C50.3126 36.904 49.2406 35.992 47.8006 35.992C46.3446 35.992 45.2566 36.904 45.2566 38.584ZM47.7846 37.336C48.3286 37.336 48.6806 37.704 48.6806 38.584C48.6806 39.48 48.3286 39.848 47.7846 39.848C47.2246 39.848 46.8726 39.48 46.8726 38.584C46.8726 37.704 47.2246 37.336 47.7846 37.336Z" fill="#FCFDFF"/>
<path d="M35.659 65.5367C35.73 67.4361 34.2446 69.0514 32.3475 68.9328C28.8741 68.7157 25.4469 67.9738 22.1838 66.7267C17.8467 65.0692 13.8889 62.5533 10.5473 59.3298C7.20578 56.1063 4.54925 52.2415 2.73691 47.9668C0.924558 43.6922 -0.00632154 39.0957 3.23052e-05 34.4528C0.00638615 29.8098 0.949843 25.2159 2.77388 20.9463C4.59792 16.6766 7.26502 12.8191 10.6154 9.60471C13.9658 6.39036 17.9305 3.88533 22.272 2.23971C25.5385 1.00156 28.9678 0.269076 32.4417 0.0614506C34.3391 -0.0519512 35.8201 1.56734 35.744 3.46659C35.6679 5.36585 34.0615 6.82148 32.1675 6.98202C29.6212 7.19785 27.1116 7.76653 24.7117 8.67619C21.2364 9.99349 18.0627 11.9987 15.3808 14.5717C12.6989 17.1448 10.5639 20.2327 9.10379 23.6505C7.64368 27.0683 6.88845 30.7456 6.88337 34.4622C6.87828 38.1788 7.62344 41.8582 9.07419 45.28C10.5249 48.7017 12.6514 51.7955 15.3263 54.3758C18.0012 56.9562 21.1694 58.9701 24.6411 60.2969C27.0385 61.2131 29.5465 61.7887 32.0922 62.0115C33.9857 62.1772 35.5881 63.6372 35.659 65.5367Z" fill="#61FA0A"/>
</svg>
