<svg width="69" height="69" viewBox="0 0 69 69" fill="none" xmlns="http://www.w3.org/2000/svg">
<circle cx="34.5" cy="34.5" r="31.5" fill="white" fill-opacity="0.06" stroke="#545956" stroke-width="6"/>
<path d="M43.3005 64.2854C43.8391 66.1083 42.7994 68.0408 40.9319 68.3951C39.3804 68.6896 37.8105 68.8771 36.2334 68.9564C34.335 69.0519 32.8693 67.4187 32.9634 65.5203C33.0574 63.6218 34.6774 62.1814 36.5728 62.0388C37.3765 61.9783 38.1772 61.8826 38.9725 61.7521C40.8482 61.4443 42.7619 62.4625 43.3005 64.2854Z" fill="#61FA0A"/>
<path d="M23.88 31.408C23.9333 30.3413 24.3067 29.52 25 28.944C25.704 28.3573 26.6267 28.064 27.768 28.064C28.5467 28.064 29.2133 28.2027 29.768 28.48C30.3227 28.7467 30.7387 29.1147 31.016 29.584C31.304 30.0427 31.448 30.5653 31.448 31.152C31.448 31.824 31.272 32.3947 30.92 32.864C30.5787 33.3227 30.168 33.632 29.688 33.792V33.856C30.3067 34.048 30.7867 34.3893 31.128 34.88C31.48 35.3707 31.656 36 31.656 36.768C31.656 37.408 31.5067 37.9787 31.208 38.48C30.92 38.9813 30.488 39.376 29.912 39.664C29.3467 39.9413 28.664 40.08 27.864 40.08C26.6587 40.08 25.6773 39.776 24.92 39.168C24.1627 38.56 23.7627 37.664 23.72 36.48H25.896C25.9173 37.0027 26.0933 37.424 26.424 37.744C26.7653 38.0533 27.2293 38.208 27.816 38.208C28.36 38.208 28.776 38.0587 29.064 37.76C29.3627 37.4507 29.512 37.056 29.512 36.576C29.512 35.936 29.3093 35.4773 28.904 35.2C28.4987 34.9227 27.8693 34.784 27.016 34.784H26.552V32.944H27.016C28.5307 32.944 29.288 32.4373 29.288 31.424C29.288 30.9653 29.1493 30.608 28.872 30.352C28.6053 30.096 28.216 29.968 27.704 29.968C27.2027 29.968 26.8133 30.1067 26.536 30.384C26.2693 30.6507 26.1147 30.992 26.072 31.408H23.88ZM33.1701 31.2C33.1701 30.3893 33.4048 29.7547 33.8741 29.296C34.3541 28.8373 34.9675 28.608 35.7141 28.608C36.4608 28.608 37.0688 28.8373 37.5381 29.296C38.0181 29.7547 38.2581 30.3893 38.2581 31.2C38.2581 32.0213 38.0181 32.6613 37.5381 33.12C37.0688 33.5787 36.4608 33.808 35.7141 33.808C34.9675 33.808 34.3541 33.5787 33.8741 33.12C33.4048 32.6613 33.1701 32.0213 33.1701 31.2ZM43.4421 28.8L37.1541 40H34.9781L41.2501 28.8H43.4421ZM35.6981 29.952C35.1115 29.952 34.8181 30.368 34.8181 31.2C34.8181 32.0427 35.1115 32.464 35.6981 32.464C35.9861 32.464 36.2101 32.3627 36.3701 32.16C36.5301 31.9467 36.6101 31.6267 36.6101 31.2C36.6101 30.368 36.3061 29.952 35.6981 29.952ZM40.1941 37.584C40.1941 36.7627 40.4288 36.128 40.8981 35.68C41.3781 35.2213 41.9915 34.992 42.7381 34.992C43.4848 34.992 44.0875 35.2213 44.5461 35.68C45.0155 36.128 45.2501 36.7627 45.2501 37.584C45.2501 38.4053 45.0155 39.0453 44.5461 39.504C44.0875 39.9627 43.4848 40.192 42.7381 40.192C41.9808 40.192 41.3675 39.9627 40.8981 39.504C40.4288 39.0453 40.1941 38.4053 40.1941 37.584ZM42.7221 36.336C42.1141 36.336 41.8101 36.752 41.8101 37.584C41.8101 38.4267 42.1141 38.848 42.7221 38.848C43.3195 38.848 43.6181 38.4267 43.6181 37.584C43.6181 36.752 43.3195 36.336 42.7221 36.336Z" fill="#FCFDFF"/>
</svg>
