<svg width="30" height="30" viewBox="0 0 30 30" fill="none" xmlns="http://www.w3.org/2000/svg">
<circle cx="15" cy="15" r="15" fill="white"/>
<path d="M14.4697 13.5303C14.7626 13.8232 15.2374 13.8232 15.5303 13.5303L20.3033 8.75736C20.5962 8.46447 20.5962 7.98959 20.3033 7.6967C20.0104 7.40381 19.5355 7.40381 19.2426 7.6967L15 11.9393L10.7574 7.6967C10.4645 7.40381 9.98959 7.40381 9.6967 7.6967C9.40381 7.98959 9.40381 8.46447 9.6967 8.75736L14.4697 13.5303ZM14.25 12L14.25 13L15.75 13L15.75 12L14.25 12Z" fill="black"/>
<path d="M14.4697 16.4697C14.7626 16.1768 15.2374 16.1768 15.5303 16.4697L20.3033 21.2426C20.5962 21.5355 20.5962 22.0104 20.3033 22.3033C20.0104 22.5962 19.5355 22.5962 19.2426 22.3033L15 18.0607L10.7574 22.3033C10.4645 22.5962 9.98959 22.5962 9.6967 22.3033C9.40381 22.0104 9.40381 21.5355 9.6967 21.2426L14.4697 16.4697ZM14.25 18L14.25 17L15.75 17L15.75 18L14.25 18Z" fill="black"/>
</svg>
