<svg width="53" height="53" viewBox="0 0 53 53" fill="none" xmlns="http://www.w3.org/2000/svg">
<circle cx="26.5" cy="26.5" r="25.5" fill="#61FA0A" stroke="#D2FFB9" stroke-width="2"/>
<path d="M17.2585 19.0012H19.8607L21.2974 16.8714C21.8395 16.0727 22.7882 15.5935 23.7641 15.5935H29.7275C30.7034 15.5935 31.6521 16.0727 32.1942 16.8714L33.6309 19.0012H36.2331C37.8866 19.0012 39.2148 20.3057 39.2148 21.9297V32.2592C39.2148 33.8832 37.8866 35.1877 36.2331 35.1877H17.2585C15.605 35.1877 14.2768 33.8832 14.2768 32.2592V21.9297C14.2768 20.3057 15.605 19.0012 17.2585 19.0012ZM26.7458 32.7917C30.4594 32.7917 33.4682 29.8366 33.4682 26.1893C33.4682 22.542 30.4594 19.6135 26.7458 19.6135C23.0322 19.6135 20.0234 22.5686 20.0234 26.2159C20.0234 29.8366 23.0322 32.7917 26.7458 32.7917ZM17.638 23.1277C17.6651 23.1277 17.6922 23.1277 17.7464 23.1277H18.8307C19.3186 23.1011 19.6981 22.7017 19.671 22.2225C19.6439 21.7699 19.2915 21.4238 18.8307 21.3972H17.7464C17.2585 21.3706 16.8519 21.7433 16.8248 22.2225C16.7977 22.7017 17.1501 23.1011 17.638 23.1277Z" fill="#2A2A2A"/>
<path d="M26.7437 22.5422C28.8038 22.5422 30.4844 24.1928 30.4844 26.2161C30.4844 28.2395 28.8038 29.8634 26.7437 29.8634C24.6836 29.8634 23.003 28.2128 23.003 26.1895C23.003 24.1662 24.6836 22.5422 26.7437 22.5422Z" fill="#2A2A2A"/>
</svg>
