<svg width="69" height="69" viewBox="0 0 69 69" fill="none" xmlns="http://www.w3.org/2000/svg">
<circle cx="34.5" cy="34.5" r="31.5" fill="white" fill-opacity="0.06" stroke="#545956" stroke-width="6"/>
<path d="M61.1613 50.431C62.7929 51.406 63.3386 53.5316 62.2059 55.0581C58.8237 59.6164 54.3675 63.2708 49.2352 65.695C47.5165 66.5068 45.5388 65.5555 44.9022 63.7645C44.2656 61.9735 45.2144 60.0244 46.9124 59.1701C50.5567 57.3366 53.7505 54.7174 56.2621 51.5027C57.4324 50.0049 59.5296 49.456 61.1613 50.431Z" fill="#61FA0A"/>
<path d="M20.576 30.4V28.336H24.432V40H22.128V30.4H20.576ZM27.3489 37.472C28.3729 36.6187 29.1889 35.9093 29.7969 35.344C30.4049 34.768 30.9115 34.1707 31.3169 33.552C31.7222 32.9333 31.9249 32.3253 31.9249 31.728C31.9249 31.184 31.7969 30.7573 31.5409 30.448C31.2849 30.1387 30.8902 29.984 30.3569 29.984C29.8235 29.984 29.4129 30.1653 29.1249 30.528C28.8369 30.88 28.6875 31.3653 28.6769 31.984H26.5009C26.5435 30.704 26.9222 29.7333 27.6369 29.072C28.3622 28.4107 29.2795 28.08 30.3889 28.08C31.6049 28.08 32.5382 28.4053 33.1889 29.056C33.8395 29.696 34.1649 30.544 34.1649 31.6C34.1649 32.432 33.9409 33.2267 33.4929 33.984C33.0449 34.7413 32.5329 35.4027 31.9569 35.968C31.3809 36.5227 30.6289 37.1947 29.7009 37.984H34.4209V39.84H26.5169V38.176L27.3489 37.472ZM35.5764 31.2C35.5764 30.3893 35.811 29.7547 36.2804 29.296C36.7604 28.8373 37.3737 28.608 38.1204 28.608C38.867 28.608 39.475 28.8373 39.9444 29.296C40.4244 29.7547 40.6644 30.3893 40.6644 31.2C40.6644 32.0213 40.4244 32.6613 39.9444 33.12C39.475 33.5787 38.867 33.808 38.1204 33.808C37.3737 33.808 36.7604 33.5787 36.2804 33.12C35.811 32.6613 35.5764 32.0213 35.5764 31.2ZM45.8484 28.8L39.5604 40H37.3844L43.6564 28.8H45.8484ZM38.1044 29.952C37.5177 29.952 37.2244 30.368 37.2244 31.2C37.2244 32.0427 37.5177 32.464 38.1044 32.464C38.3924 32.464 38.6164 32.3627 38.7764 32.16C38.9364 31.9467 39.0164 31.6267 39.0164 31.2C39.0164 30.368 38.7124 29.952 38.1044 29.952ZM42.6004 37.584C42.6004 36.7627 42.835 36.128 43.3044 35.68C43.7844 35.2213 44.3977 34.992 45.1444 34.992C45.891 34.992 46.4937 35.2213 46.9524 35.68C47.4217 36.128 47.6564 36.7627 47.6564 37.584C47.6564 38.4053 47.4217 39.0453 46.9524 39.504C46.4937 39.9627 45.891 40.192 45.1444 40.192C44.387 40.192 43.7737 39.9627 43.3044 39.504C42.835 39.0453 42.6004 38.4053 42.6004 37.584ZM45.1284 36.336C44.5204 36.336 44.2164 36.752 44.2164 37.584C44.2164 38.4267 44.5204 38.848 45.1284 38.848C45.7257 38.848 46.0244 38.4267 46.0244 37.584C46.0244 36.752 45.7257 36.336 45.1284 36.336Z" fill="#FCFDFF"/>
</svg>
