<svg width="69" height="69" viewBox="0 0 69 69" fill="none" xmlns="http://www.w3.org/2000/svg">
<circle cx="34.5" cy="34.5" r="31.5" fill="white" fill-opacity="0.06" stroke="#545956" stroke-width="6"/>
<path d="M32.7301 3.49214C32.6217 1.59445 34.0751 -0.0497172 35.9742 0.0315014C40.3615 0.219141 44.6838 1.24326 48.7048 3.06002C53.7742 5.35038 58.2145 8.83256 61.6473 13.2097C65.08 17.5869 67.4035 22.7292 68.4196 28.1983C69.2256 32.5365 69.19 36.9783 68.3265 41.2839C67.9527 43.1476 66.0095 44.1672 64.1923 43.6097C62.3751 43.0522 61.3768 41.1279 61.7041 39.2555C62.2696 36.021 62.2552 32.702 61.6521 29.4556C60.8387 25.0777 58.9788 20.9613 56.2309 17.4575C53.483 13.9537 49.9286 11.1662 45.8707 9.33284C42.8616 7.97329 39.6418 7.16826 36.3656 6.94643C34.4692 6.81802 32.8384 5.38984 32.7301 3.49214Z" fill="#61FA0A"/>
<path d="M18.88 32.408C18.9333 31.3413 19.3067 30.52 20 29.944C20.704 29.3573 21.6267 29.064 22.768 29.064C23.5467 29.064 24.2133 29.2027 24.768 29.48C25.3227 29.7467 25.7387 30.1147 26.016 30.584C26.304 31.0427 26.448 31.5653 26.448 32.152C26.448 32.824 26.272 33.3947 25.92 33.864C25.5787 34.3227 25.168 34.632 24.688 34.792V34.856C25.3067 35.048 25.7867 35.3893 26.128 35.88C26.48 36.3707 26.656 37 26.656 37.768C26.656 38.408 26.5067 38.9787 26.208 39.48C25.92 39.9813 25.488 40.376 24.912 40.664C24.3467 40.9413 23.664 41.08 22.864 41.08C21.6587 41.08 20.6773 40.776 19.92 40.168C19.1627 39.56 18.7627 38.664 18.72 37.48H20.896C20.9173 38.0027 21.0933 38.424 21.424 38.744C21.7653 39.0533 22.2293 39.208 22.816 39.208C23.36 39.208 23.776 39.0587 24.064 38.76C24.3627 38.4507 24.512 38.056 24.512 37.576C24.512 36.936 24.3093 36.4773 23.904 36.2C23.4987 35.9227 22.8693 35.784 22.016 35.784H21.552V33.944H22.016C23.5307 33.944 24.288 33.4373 24.288 32.424C24.288 31.9653 24.1493 31.608 23.872 31.352C23.6053 31.096 23.216 30.968 22.704 30.968C22.2027 30.968 21.8133 31.1067 21.536 31.384C21.2693 31.6507 21.1147 31.992 21.072 32.408H18.88ZM36.2661 31.272H31.0821V34.008C31.3061 33.7307 31.6261 33.5067 32.0421 33.336C32.4581 33.1547 32.9008 33.064 33.3701 33.064C34.2235 33.064 34.9221 33.2507 35.4661 33.624C36.0101 33.9973 36.4048 34.4773 36.6501 35.064C36.8955 35.64 37.0181 36.2587 37.0181 36.92C37.0181 38.1467 36.6661 39.1333 35.9621 39.88C35.2688 40.6267 34.2768 41 32.9861 41C31.7701 41 30.7995 40.696 30.0741 40.088C29.3488 39.48 28.9381 38.6853 28.8421 37.704H31.0181C31.1141 38.1307 31.3275 38.472 31.6581 38.728C31.9995 38.984 32.4315 39.112 32.9541 39.112C33.5835 39.112 34.0581 38.9147 34.3781 38.52C34.6981 38.1253 34.8581 37.6027 34.8581 36.952C34.8581 36.2907 34.6928 35.7893 34.3621 35.448C34.0421 35.096 33.5675 34.92 32.9381 34.92C32.4901 34.92 32.1168 35.032 31.8181 35.256C31.5195 35.48 31.3061 35.7787 31.1781 36.152H29.0341V29.304H36.2661V31.272ZM38.467 32.2C38.467 31.3893 38.7017 30.7547 39.171 30.296C39.651 29.8373 40.2643 29.608 41.011 29.608C41.7577 29.608 42.3657 29.8373 42.835 30.296C43.315 30.7547 43.555 31.3893 43.555 32.2C43.555 33.0213 43.315 33.6613 42.835 34.12C42.3657 34.5787 41.7577 34.808 41.011 34.808C40.2643 34.808 39.651 34.5787 39.171 34.12C38.7017 33.6613 38.467 33.0213 38.467 32.2ZM48.739 29.8L42.451 41H40.275L46.547 29.8H48.739ZM40.995 30.952C40.4083 30.952 40.115 31.368 40.115 32.2C40.115 33.0427 40.4083 33.464 40.995 33.464C41.283 33.464 41.507 33.3627 41.667 33.16C41.827 32.9467 41.907 32.6267 41.907 32.2C41.907 31.368 41.603 30.952 40.995 30.952ZM45.491 38.584C45.491 37.7627 45.7257 37.128 46.195 36.68C46.675 36.2213 47.2883 35.992 48.035 35.992C48.7817 35.992 49.3843 36.2213 49.843 36.68C50.3123 37.128 50.547 37.7627 50.547 38.584C50.547 39.4053 50.3123 40.0453 49.843 40.504C49.3843 40.9627 48.7817 41.192 48.035 41.192C47.2777 41.192 46.6643 40.9627 46.195 40.504C45.7257 40.0453 45.491 39.4053 45.491 38.584ZM48.019 37.336C47.411 37.336 47.107 37.752 47.107 38.584C47.107 39.4267 47.411 39.848 48.019 39.848C48.6163 39.848 48.915 39.4267 48.915 38.584C48.915 37.752 48.6163 37.336 48.019 37.336Z" fill="#FCFDFF"/>
</svg>
