<svg width="29" height="29" viewBox="0 0 29 29" fill="none" xmlns="http://www.w3.org/2000/svg">
<circle cx="14.0848" cy="14.0848" r="14.0848" fill="#111914"/>
<g clip-path="url(#clip0_722_26)">
<path d="M6.28001 12.4804C6.23022 13.8206 7.1056 15.517 9.014 16.009C8.49956 16.1489 8.00587 16.1405 7.47483 16.0726C8.0681 17.5867 9.12601 18.4052 10.7108 18.5537C9.19239 19.72 7.51632 20.1865 5.63281 20.0169C5.67015 20.0508 5.68675 20.0678 5.70334 20.0762C6.47085 20.5682 7.28814 20.9414 8.15522 21.2001C9.53258 21.603 10.9307 21.6963 12.3495 21.5055C13.8514 21.3062 15.2578 20.8142 16.4858 19.9108C19.4023 17.7648 20.8129 14.8215 20.817 11.1614C20.817 11.085 20.8668 10.9917 20.9208 10.9408C21.1738 10.7033 21.4518 10.4955 21.6883 10.2453C21.987 9.92719 22.2525 9.57942 22.5304 9.24437C22.518 9.23165 22.5056 9.21468 22.4931 9.20196C21.8957 9.45219 21.2858 9.6388 20.6345 9.70241C21.3024 9.22317 21.7961 8.61668 22.0616 7.78542C21.987 7.82359 21.9413 7.8448 21.8998 7.87024C21.2983 8.21377 20.6594 8.45976 19.9873 8.59972C19.9209 8.61244 19.8255 8.58699 19.7757 8.54034C18.8008 7.61153 17.6682 7.31041 16.3821 7.6497C15.0047 8.0102 13.9095 9.40129 13.868 10.8518C13.8597 11.1868 13.8887 11.5261 13.9012 11.8824C11.0261 11.683 8.65306 10.4361 6.7737 8.17136C6.37958 8.87115 6.22608 9.60487 6.32564 10.381C6.45425 11.4201 6.9521 12.2513 7.82747 12.9002C7.24665 12.8875 6.76126 12.7263 6.28001 12.4804Z" fill="#ECCAAA"/>
<path d="M6.28367 12.4805C6.76077 12.7265 7.25032 12.8876 7.82699 12.9046C6.95576 12.2557 6.45792 11.4244 6.32516 10.3854C6.22974 9.605 6.38324 8.87128 6.77737 8.17149C8.65673 10.4363 11.0298 11.6832 13.909 11.8825C13.8965 11.5262 13.8675 11.1869 13.8758 10.8519C13.9173 9.40142 15.0125 8.01033 16.3899 7.64983C17.6801 7.31478 18.8127 7.61166 19.7835 8.54047C19.8333 8.58713 19.9287 8.61257 19.9951 8.59985C20.6713 8.45989 21.3061 8.21391 21.9077 7.87037C21.9491 7.84493 21.9948 7.82372 22.0695 7.78555C21.8039 8.61681 21.3102 9.2233 20.6423 9.70255C21.2895 9.63893 21.9035 9.45232 22.5009 9.20209C22.5134 9.21481 22.5258 9.23178 22.5383 9.2445C22.2603 9.57955 21.9948 9.92733 21.6961 10.2454C21.4596 10.4956 21.1816 10.7035 20.9286 10.941C20.8746 10.9919 20.8248 11.0852 20.8248 11.1615C20.8207 14.8258 19.4101 17.7649 16.4936 19.911C15.2656 20.8143 13.8592 21.3063 12.3574 21.5056C10.9385 21.6965 9.5404 21.6032 8.16303 21.2003C7.29595 20.9458 6.47866 20.5683 5.71115 20.0764C5.69456 20.0636 5.67796 20.0509 5.64062 20.017C7.52413 20.1909 9.2002 19.7244 10.7228 18.5538C9.13383 18.4054 8.07591 17.5868 7.48679 16.0727C8.01783 16.1406 8.50737 16.1448 9.02596 16.0091C7.10926 15.5171 6.23389 13.8207 6.28367 12.4805Z" fill="#61FA0A"/>
</g>
<defs>
<clipPath id="clip0_722_26">
<rect width="16.9018" height="14.0848" fill="white" transform="translate(5.63281 7.5127)"/>
</clipPath>
</defs>
</svg>
